<?xml version="1.0" encoding="UTF-8"?> <svg xmlns="http://www.w3.org/2000/svg" xmlns:xlink="http://www.w3.org/1999/xlink" version="1.1" id="Layer_1" x="0px" y="0px" width="502" height="62" fill="#000000" viewBox="0 0 502.1 62" style="enable-background:new 0 0 502.1 62;" xml:space="preserve"> <g> <g> <path d="M31,4.4L37.2,0L37,26.9c-6.8-15.8-9.7-22-19-22c-4.7,0-8.8,3.9-8.8,8.4c0,6.7,5.5,8.1,15.6,12.5 c6.1,3.1,13.1,7.3,13.1,17.4c0,8.7-6.7,15.7-18.4,15.7c-5.6,0-9.9-1.7-13.1-3.9l-6.2,4.3l0.2-26.7c5.4,13.7,10.7,21.9,18.3,21.9 c5.4,0,9.6-2.6,9.6-8.7c0-7.3-9.7-10.2-15.4-12.7C9.4,31.4,0.1,26.6,0.1,16.8C0.1,5.5,9.2,0.6,19.8,0.6C23.5,0.6,27.9,2.3,31,4.4z "></path> <path d="M70.3,52V6.1h-8.8L48.3,22.8l1.6-21.2h52.2l1.6,21.2L90.5,6.1h-9v45.6l8.6,6.6H62.3L70.3,52z"></path> <path d="M142.5,60.1c-17.3-0.2-28.4-11.6-28.4-29.9c0-17.8,11.3-30.1,28.4-30.1c18,0,28.3,13.1,28.4,29.9 C170.9,48.4,159.8,59.8,142.5,60.1z M126.5,30.1c0,12.8,4.3,25.4,16,25.4s16-12.6,16-25.4c0-12.7-4.3-25.3-16-25.4 C130.8,4.7,126.5,17.4,126.5,30.1z"></path> <path d="M189.3,52V8.1l-8.2-6.4H208c15.7,0,30.7,8.4,30.7,28.4c0,15.7-10.2,28.3-31.4,28.3c-13.5,0-13.7-0.2-13.7-0.2h-12.5 L189.3,52z M200.4,6.2V54h6.9c12.9,0,18.8-9.1,18.8-23c0-14-6.3-24.8-20.4-24.8L200.4,6.2L200.4,6.2z"></path> <path d="M257.6,52V8.1l-8.2-6.4h26.9c15.7,0,30.7,8.4,30.7,28.4c0,15.7-10.2,28.3-31.4,28.3c-13.5,0-13.7-0.2-13.7-0.2h-12.5 L257.6,52z M268.6,6.2V54h6.9c12.9,0,18.8-9.1,18.8-23c0-14-6.3-24.8-20.4-24.8L268.6,6.2L268.6,6.2z"></path> <path d="M321,52l21.4-50.9h4.2l20.6,52.2l5.8,5h-26.2l7.6-5.9l-3.9-10.6H331l-4.6,11.3l6.8,5.2h-18.8L321,52z M332.7,37.4h16.1 l-7.7-20.6L332.7,37.4z"></path> <path d="M389.5,52V8.1l-8.2-6.4h14.3c0,0,10.4-0.1,18.8-0.1c10.2,0,16.3,6.6,16.3,14c0,6.3-3,12.3-14.5,15.4l22.5,30.9 c-13.6-0.1-28.1-21.7-36.7-30.3h-1.5v20.1l8.6,6.6h-27.8L389.5,52z M400.5,5.8v22.4c8.9,0,18.4,0,18.4-11.3c0-4.3-1.7-8.1-4.7-9.6 c-2.9-1.6-6.6-1.5-11.5-1.5H400.5z"></path> <path d="M452.4,52V8.1l-8.2-6.4h26.9c15.7,0,30.7,8.4,30.7,28.4c0,15.7-10.2,28.3-31.4,28.3c-13.5,0-13.7-0.2-13.7-0.2h-12.5 L452.4,52z M463.5,6.2V54h6.9c12.9,0,18.8-9.1,18.8-23c0-14-6.3-24.8-20.4-24.8L463.5,6.2L463.5,6.2z"></path> </g> </g> </svg> 