<?xml version="1.0" encoding="UTF-8"?> <svg xmlns="http://www.w3.org/2000/svg" id="Layer_1" data-name="Layer 1" version="1.1" width="220" height="40" viewBox="0 0 220 39.54"><defs><style> .cls-1 { fill: #000; fill-rule: evenodd; stroke-width: 0px; } </style></defs><path class="cls-1" d="M36.64,16.91h-3.64v12.97h-6.72v-12.97h-3.21v-5.69h3.21v-5.26h6.72v5.26h3.64s0,5.69,0,5.69ZM57.3,20.79c0-2.67-.79-4.92-2.37-6.74-1.86-2.15-4.46-3.22-7.8-3.22s-5.86.96-7.7,2.89c-1.75,1.82-2.63,4.26-2.63,7.32s.93,5.2,2.79,6.9c1.86,1.69,4.4,2.54,7.6,2.54,2.94,0,5.3-.72,7.05-2.15,1.41-1.15,2.31-2.63,2.69-4.44h-6.66c-.71,1.06-1.72,1.58-3.02,1.58-2.08,0-3.27-1.16-3.57-3.47h13.61s0-1.21,0-1.21ZM44.08,17.93c.46-1.71,1.54-2.57,3.25-2.57s2.71.86,3.12,2.57h-6.37ZM59.27,29.87h6.68V0h-6.68v29.87ZM67.8,38.86h6.68V11.23h-6.68v27.64ZM74.82,4.69c0,1-.33,1.84-.98,2.51-.65.67-1.52,1.01-2.6,1.01-1.15,0-2.04-.33-2.67-.99-.63-.66-.94-1.51-.94-2.53s.34-1.88,1.01-2.58c.67-.69,1.54-1.04,2.6-1.04s1.9.34,2.57,1.03c.67.68,1.01,1.55,1.01,2.59ZM96.47,20.79c0-2.67-.79-4.92-2.37-6.74-1.86-2.15-4.46-3.22-7.8-3.22s-5.86.96-7.7,2.89c-1.75,1.82-2.63,4.26-2.63,7.32s.93,5.2,2.79,6.9c1.86,1.69,4.4,2.54,7.6,2.54,2.94,0,5.29-.72,7.05-2.15,1.41-1.15,2.31-2.63,2.69-4.44h-6.66c-.71,1.06-1.72,1.58-3.02,1.58-2.08,0-3.27-1.16-3.57-3.47h13.61s0-1.21,0-1.21ZM87.44,2.01l-5.1,5.99,2.57,1.73,6.36-5.21-3.83-2.51h0ZM83.25,17.93c.46-1.71,1.54-2.57,3.25-2.57s2.71.86,3.12,2.57h-6.37ZM145.91,0v18.47l6.34-7.24h8.62l-8.18,8.77,9.58,9.88h-9.46l-6.76-7.21-.13.03v7.18h-6.85V11.33s-14.75,28.22-14.75,28.22h-7.63l6.5-12.28-9.06-16.05h8.02l4.64,9.31,4.91-9.31h7.38V0h6.85ZM110.19,2.7v20.93h8.54v6.25h-15.94V2.7h7.4,0ZM197.95,11.23h-6.33v2.08l.12-.1c-.13-.19-.63-.55-1.49-1.07-1.43-.9-2.88-1.36-4.35-1.36-2.49,0-4.64.92-6.46,2.76-1.88,1.88-2.83,4.21-2.83,6.97,0,3.09.96,5.58,2.89,7.46,1.71,1.67,3.73,2.5,6.07,2.5.97,0,2.24-.39,3.79-1.16,1.32-.65,2.07-1.1,2.24-1.36l.03.07v1.85h6.33V11.23h0ZM190.83,23.45c-.78.86-1.82,1.29-3.12,1.29s-2.27-.45-3.05-1.36c-.67-.8-1.01-1.73-1.01-2.81s.34-1.98,1.01-2.78c.78-.88,1.77-1.32,2.99-1.32,1.3,0,2.34.43,3.12,1.29.74.77,1.1,1.71,1.1,2.81s-.35,2.1-1.04,2.87h0ZM220,29.87h-7.02v-10.7c0-.69-.24-1.31-.71-1.85-.54-.63-1.28-.94-2.23-.94-2.2,0-3.3,1.23-3.3,3.69v9.79h-6.72V11.23h6.72v2.34l.07.03c.37-.5,1.03-1.04,1.99-1.62,1.34-.82,2.63-1.23,3.87-1.23,4.9,0,7.35,2.69,7.35,8.06v11.08h0ZM176.05,16.83h-3.64v12.97h-6.72v-12.97h-3.21v-5.69h3.21v-5.27h6.72v5.27h3.64v5.69h0ZM21.35,11.21h-6.33v2.08l.12-.1c-.13-.19-.63-.55-1.49-1.07-1.43-.9-2.88-1.36-4.35-1.36-2.49,0-4.64.92-6.46,2.76-1.89,1.88-2.83,4.2-2.83,6.97,0,3.09.96,5.58,2.89,7.46,1.71,1.67,3.73,2.5,6.07,2.5.97,0,2.24-.39,3.79-1.16,1.32-.65,2.06-1.1,2.24-1.36l.03.07v1.85h6.33V11.21h0ZM14.24,23.43c-.78.86-1.82,1.29-3.12,1.29s-2.27-.45-3.05-1.35c-.67-.8-1.01-1.73-1.01-2.81-.01-1.02.35-2,1.01-2.77.78-.88,1.77-1.32,2.99-1.32,1.3,0,2.34.43,3.12,1.29.73.77,1.1,1.71,1.1,2.81s-.35,2.1-1.04,2.87Z"></path></svg> 