<?xml version="1.0" encoding="UTF-8"?> <svg xmlns="http://www.w3.org/2000/svg" id="Logo_2" data-name="Logo 2" width="246" height="40.528"><defs><style>.cls-1{fill:#333}</style></defs><path id="Path_30" data-name="Path 30" class="cls-1" d="M424.33 267.693v-37.472h7.942v37.472z" transform="translate(-303.328 -228.824)"></path><path id="Path_31" data-name="Path 31" class="cls-1" d="M484.724 230.221h-23.472v7.271h7.7V267.5h7.722v-30.008h8.053z" transform="translate(-324.454 -228.824)"></path><path id="Path_32" data-name="Path 32" class="cls-1" d="M164.985 230.221h-23.472v7.271h7.674V267.5h7.722v-30.008h8.075z" transform="translate(-141.513 -228.824)"></path><path id="Path_33" data-name="Path 33" class="cls-1" d="M354.171 265.7h-7.736v-22.362a8.646 8.646 0 10-17.292 0V265.7h-7.736v-22.362a16.382 16.382 0 1132.764 0z" transform="translate(-244.44 -226.956)"></path><path id="Path_34" data-name="Path 34" class="cls-1" d="M672.673 265.7h-7.736v-22.362a8.646 8.646 0 10-17.292 0V265.7h-7.736v-22.362a16.382 16.382 0 1132.764 0z" transform="translate(-426.673 -226.956)"></path><path id="Path_35" data-name="Path 35" class="cls-1" d="M228.23 268.241a19.981 19.981 0 1119.98-19.981 20 20 0 01-19.98 19.981zm0-32.805a12.825 12.825 0 1012.825 12.825 12.839 12.839 0 00-12.825-12.826z" transform="translate(-179.696 -227.713)"></path><path id="Path_36" data-name="Path 36" class="cls-1" d="M546.045 268.241a19.981 19.981 0 1119.981-19.981 20 20 0 01-19.981 19.981zm0-32.805a12.825 12.825 0 1012.825 12.825 12.839 12.839 0 00-12.825-12.826z" transform="translate(-361.536 -227.713)"></path></svg> 