<?xml version="1.0" encoding="UTF-8"?> <svg xmlns="http://www.w3.org/2000/svg" xmlns:xlink="http://www.w3.org/1999/xlink" width="198px" height="20px" viewBox="0 5 198 20" version="1.1"><desc>Created with Sketch.</desc><defs></defs><g id="logo" stroke="none" fill="none" transform="translate(0.000000, 5.000000)" fill-rule="nonzero"><path d="M198,0.506666667 L184.14,0.506666667 L184.14,5.89 L187.716774,5.89 L187.716774,18.43 L194.359355,18.43 L194.359355,5.89 L197.936129,5.89 L197.936129,0.506666667 L198,0.506666667 Z M171.046452,0.506666667 L171.046452,18.43 L183.373548,18.43 L183.373548,13.4266667 L177.178065,13.4266667 L177.178065,11.78 L182.734839,11.78 L182.734839,6.96666667 L177.178065,6.96666667 L177.178065,5.51 L183.181935,5.51 L183.181935,0.506666667 L171.046452,0.506666667 Z M160.443871,5.38333333 L161.082581,5.38333333 C161.785161,5.38333333 162.615484,5.38333333 163.126452,6.01666667 C163.318065,6.27 163.381935,6.52333333 163.381935,6.90333333 C163.381935,7.28333333 163.318065,7.6 162.99871,7.91666667 C162.487742,8.48666667 161.785161,8.55 161.082581,8.55 L160.443871,8.55 L160.443871,5.38333333 Z M153.865161,0.506666667 L153.865161,18.43 L160.507742,18.43 L160.507742,13.0466667 L162.679355,13.0466667 C164.403871,13.0466667 166.128387,12.9833333 167.597419,11.9066667 C169.705161,10.3866667 169.769032,7.85333333 169.769032,7.09333333 C169.769032,6.46 169.705161,4.87666667 168.747097,3.29333333 C167.469677,1.26666667 165.489677,0.823333333 164.659355,0.633333333 C163.892903,0.506666667 163.126452,0.443333333 161.529677,0.443333333 L153.865161,0.443333333 L153.865161,0.506666667 Z M142.496129,5.38333333 L143.390323,5.38333333 C143.645806,5.38333333 145.434194,5.25666667 145.434194,6.84 C145.434194,7.28333333 145.306452,7.6 145.17871,7.72666667 C144.795484,8.36 144.092903,8.36 143.390323,8.36 L142.496129,8.36 L142.496129,5.38333333 L142.496129,5.38333333 Z M136.300645,0.506666667 L136.300645,18.43 L142.496129,18.43 L142.496129,11.8433333 L145.817419,18.43 L152.843226,18.43 L148.5,11.2733333 C149.074839,11.0833333 149.458065,10.8933333 149.969032,10.5766667 C150.799355,10.0066667 151.885161,8.86666667 151.885161,6.52333333 C151.885161,4.68666667 151.182581,3.61 150.735484,2.97666667 C149.458065,1.26666667 147.541935,0.696666667 145.434194,0.57 C144.923226,0.506666667 144.348387,0.506666667 143.837419,0.506666667 L136.300645,0.506666667 L136.300645,0.506666667 Z M125.698065,6.71333333 L127.039355,11.8433333 L124.420645,11.8433333 L125.698065,6.71333333 Z M121.738065,0.506666667 L115.925806,18.43 L122.632258,18.43 L123.207097,16.15 L128.125161,16.15 L128.7,18.43 L135.470323,18.43 L129.658065,0.506666667 L121.738065,0.506666667 L121.738065,0.506666667 Z M115.287097,0.823333333 C114.520645,0.57 112.923871,0 110.752258,0 C107.686452,0 105.898065,1.01333333 104.876129,1.77333333 C103.59871,2.72333333 101.171613,5.19333333 101.171613,9.43666667 C101.171613,10.7033333 101.427097,14.1866667 104.365161,16.6566667 C106.792258,18.7466667 109.730323,18.81 110.816129,18.81 C112.476774,18.81 113.626452,18.4933333 115.159355,18.05 L115.414839,11.3366667 C114.584516,11.97 113.881935,12.4766667 112.86,12.73 C112.476774,12.8566667 112.029677,12.8566667 111.646452,12.8566667 C109.602581,12.8566667 108.580645,11.6533333 108.26129,10.8933333 C108.005806,10.26 107.941935,9.62666667 107.941935,9.43666667 C107.941935,7.41 109.474839,5.95333333 111.454839,5.95333333 C113.49871,5.95333333 114.776129,7.15666667 115.287097,7.66333333 L115.287097,0.823333333 Z M93.6348387,0.506666667 L79.8387097,0.506666667 L79.8387097,5.89 L83.4154839,5.89 L83.4154839,18.43 L90.0580645,18.43 L90.0580645,5.89 L93.6348387,5.89 L93.6348387,0.506666667 Z M78.6890323,0.823333333 C77.9225806,0.57 76.3258065,0 74.2180645,0 C71.1522581,0 69.363871,1.01333333 68.3419355,1.77333333 C67.0645161,2.72333333 64.6374194,5.19333333 64.6374194,9.43666667 C64.6374194,10.7033333 64.8929032,14.1866667 67.8309677,16.6566667 C70.2580645,18.7466667 73.196129,18.81 74.2819355,18.81 C75.9425806,18.81 77.0922581,18.4933333 78.6251613,18.05 L78.8806452,11.3366667 C78.0503226,11.97 77.3477419,12.4766667 76.3258065,12.73 C75.9425806,12.8566667 75.4954839,12.8566667 75.1122581,12.8566667 C73.0683871,12.8566667 72.0464516,11.6533333 71.7270968,10.8933333 C71.4716129,10.26 71.4077419,9.62666667 71.4077419,9.43666667 C71.4077419,7.41 72.9406452,5.95333333 74.9206452,5.95333333 C76.9645161,5.95333333 78.2419355,7.15666667 78.7529032,7.66333333 L78.7529032,0.823333333 L78.6890323,0.823333333 Z M51.0329032,0.506666667 L51.0329032,18.43 L63.36,18.43 L63.36,13.4266667 L57.1645161,13.4266667 L57.1645161,11.78 L62.7212903,11.78 L62.7212903,6.96666667 L57.1645161,6.96666667 L57.1645161,5.51 L63.1683871,5.51 L63.1683871,0.506666667 L51.0329032,0.506666667 Z M48.7335484,0.506666667 L42.0909677,0.506666667 L42.0909677,10.9566667 C42.0909677,11.59 42.0909677,12.54 41.516129,12.9833333 C41.2606452,13.1733333 41.0051613,13.1733333 40.8774194,13.1733333 C40.0470968,13.1733333 39.536129,12.4766667 39.0890323,11.9066667 L36.9174194,16.8466667 C37.8116129,17.48 39.6,18.81 42.4741935,18.81 C45.1567742,18.81 46.6258065,17.6066667 47.3283871,16.72 C48.6058065,15.1366667 48.7335484,13.3 48.7335484,11.4 L48.7335484,0.506666667 Z M27.4006452,11.0833333 L28.4864516,11.0833333 C29.1251613,11.0833333 29.9554839,11.0833333 30.4025806,11.7166667 C30.5941935,11.97 30.6580645,12.2233333 30.6580645,12.6033333 C30.6580645,13.3633333 30.1470968,13.7433333 29.8916129,13.87 C29.5083871,13.9966667 28.8696774,13.9966667 28.4864516,13.9966667 L27.4006452,13.9966667 L27.4006452,11.0833333 L27.4006452,11.0833333 Z M27.4006452,4.75 L28.1032258,4.75 C28.2309677,4.75 29.2529032,4.62333333 29.763871,5.25666667 C30.0193548,5.51 30.0193548,5.89 30.0193548,6.01666667 C30.0193548,6.46 29.8916129,6.71333333 29.763871,6.84 C29.3806452,7.28333333 28.7419355,7.34666667 28.1670968,7.34666667 L27.4645161,7.34666667 L27.4645161,4.75 L27.4006452,4.75 Z M21.2051613,0.506666667 L21.2051613,18.43 L29.7,18.43 C31.4883871,18.43 33.0212903,18.3666667 34.6180645,17.4166667 C35.1290323,17.1 35.576129,16.72 35.9593548,16.2133333 C36.8535484,15.0733333 36.9174194,13.9333333 36.9174194,13.3633333 C36.9174194,12.7933333 36.9174194,11.59 35.7677419,10.45 C35.1290323,9.81666667 34.6180645,9.56333333 33.8516129,9.18333333 C34.3625806,8.86666667 34.6180645,8.67666667 34.8735484,8.42333333 C35.703871,7.66333333 36.0870968,6.52333333 36.0870968,5.38333333 C36.0870968,4.43333333 35.8316129,3.48333333 35.3206452,2.72333333 C33.9154839,0.696666667 31.4883871,0.57 30.7858065,0.57 L29.7,0.57 L21.2051613,0.57 L21.2051613,0.506666667 Z M9.77225806,6.01666667 C11.1774194,6.01666667 12.2632258,6.77666667 12.7741935,8.04333333 C12.9019355,8.29666667 13.0296774,8.74 13.0296774,9.43666667 C13.0296774,11.4 11.816129,12.35 11.1135484,12.6033333 C10.8580645,12.73 10.4109677,12.8566667 9.7083871,12.8566667 C7.7283871,12.8566667 6.51483871,11.2733333 6.51483871,9.43666667 C6.51483871,7.53666667 7.66451613,6.58666667 8.30322581,6.27 C9.00580645,6.01666667 9.51677419,6.01666667 9.77225806,6.01666667 L9.77225806,6.01666667 Z M9.7083871,0.0633333333 C6.96193548,0.0633333333 5.17354839,0.95 4.21548387,1.52 C3.19354839,2.15333333 1.08580645,3.86333333 0.319354839,7.09333333 C0,8.17 0,9.12 0,9.5 C0,13.5533333 2.23548387,16.8466667 6.1316129,18.1766667 C7.85612903,18.81 9.32516129,18.81 10.0277419,18.81 C15.5845161,18.81 19.6083871,14.8833333 19.6083871,9.37333333 C19.6083871,8.23333333 19.4167742,7.28333333 19.3529032,6.84 C18.5864516,3.92666667 16.4787097,2.21666667 15.6483871,1.64666667 C13.1574194,0.126666667 10.7303226,-9.07607323e-15 9.7083871,0.0633333333 L9.7083871,0.0633333333 Z" id="Shape" fill="#1D1D1B"></path></g></svg> 