<?xml version="1.0" encoding="UTF-8"?> <svg xmlns="http://www.w3.org/2000/svg" id="Layer_1" data-name="Layer 1" version="1.1" viewBox="0 0 802 202"><defs><style> .cls-1 { fill: #000; stroke-width: 0px; } </style></defs><path class="cls-1" d="M83,70.6v68.9c0,28.7-14.4,43.5-42.3,43.5S0,174.9,0,139.5v-68.9h12.5v68.9c0,12.4,1.5,39,30.9,39s36.8-7.4,36.8-40.6v-67.3h2.9ZM188.7,183h-.5l-85.5-94.7v91.6h-2.9v-111.5h.5l85.5,94.7v-92.6h2.9v112.4h0ZM207.9,70.6h12.5v112.4h-12.5v-112.4ZM334.7,172.7l23.3,29.3h-15.7l-18.8-23.6c-8.9,3.4-18.1,4.6-25.4,4.6-21.8,0-59.9-11-59.9-57.3s28.7-57.2,59.9-57.2,59.9,16.8,59.9,57.2-10.3,38.6-23.3,47.1h0ZM321,175.2l-20.3-25.5h15.7l14.6,18.4c8.2-8.1,14.1-21.4,14.1-42.5,0-45.1-30.2-54.3-47.1-54.3s-47.1,9.2-47.1,54.3,27.5,54.5,47.1,54.5,15.4-1.2,22.9-4.9h0ZM492.6,125.6c0,46.3-38.1,57.3-59.9,57.3s-59.9-11-59.9-57.3,28.7-57.2,59.9-57.2,59.9,16.8,59.9,57.2h0ZM479.8,125.6c0-45.1-30.2-54.3-47.1-54.3s-47.1,9.2-47.1,54.3,27.5,54.5,47.1,54.5,47.1-8.7,47.1-54.5ZM569.7,179.9l-40.3-50.8h-8v50.8h-12.5v-109.4s24.6,0,33.1,0,35,3.3,35,27.4-19.4,28.8-32.3,30.5l40.9,51.5h-15.7ZM521.3,126.3h9.5c20.4,0,32.9-6.9,32.9-26.4s-10.6-26.4-28.5-26.4h-14v52.8h0ZM688.5,183h-.5l-85.5-94.7v91.6h-2.9v-111.5h.5l85.5,94.7v-92.6h2.9v112.4h0ZM769.8,136h-42.5l-19.6,44h-4l49.6-111.5h1l47.8,111.5h-13.4l-18.8-44h0ZM768.5,133.1l-19.6-45.8-20.4,45.8h40ZM200.3,64h27.8v3.1h-27.8v-3.1ZM200.3,62.6h27.8l1.4-3.1h-30.6l1.4,3.1h0ZM217.2,24.3c-.1-.7-.5-3.5-1-6.9-1-1.3-2-2.2-2-2.2,0,0-1,.9-2,2.2-.5,3.4-.9,6.2-1,6.9,1.3-1.9,3-3.7,3-3.7,0,0,1.7,1.8,3,3.7Z"></path><path class="cls-1" d="M228.6,36.1c-1.1-1.5-4.4-5.1-10.1-3.6-.3,0-.6.2-.9.2.3-.3.5-.6.7-.9.1-.3.2-.6.2-1,0-.9-.8-2.2-1.7-3.4-1.2-1.7-2.7-3.2-2.7-3.2,0,0-1.5,1.6-2.7,3.2-.9,1.2-1.7,2.5-1.7,3.4s0,.7.2,1c.2.3.4.6.7.9-.3,0-.6-.2-.9-.2-5.7-1.5-9.1,2.1-10.1,3.6-10.2-6.2-21.4,14.8-2.1,21.3h4.5c-1.7-1-3.2-2.2-4.4-3.5-10.9-2.8-7.3-17.3-.6-15.3.5.2.9.4,1.2.7-.7,2.5-.7,4.8-.7,5.1.1,5,3.5,9.8,8.8,13.1h5.9c-13.7-5.5-12.4-18.4-7.4-21.1,3.4-1.8,7.4.4,7.4,2.7v18.4h3.8v-18.4c0-2.3,4-4.5,7.4-2.7,5,2.7,6.3,15.6-7.4,21.1h5.9c5.3-3.3,8.7-8.1,8.8-13.1,0-.3,0-2.6-.7-5.1.3-.3.7-.5,1.2-.7,6.7-2,10.3,12.5-.6,15.3-1.2,1.3-2.7,2.5-4.4,3.5h4.5c19.3-6.6,8.1-27.5-2.1-21.3h0ZM214.2,12.3s1.1,1,2.1,2.2c-.4-3.1-.9-6.7-1.4-9.5C214.5,2.2,214.2,0,214.2,0c0,.1-.4,2.2-.8,5-.4,2.8-.9,6.4-1.4,9.5,1-1.2,2.1-2.2,2.1-2.2Z"></path></svg> 