<svg xmlns="http://www.w3.org/2000/svg" viewBox="0 0 138.61 139.3" role="img" aria-label="Tripadvisor Travellers' Choice 2026"><defs><clipPath id="tc26-clip"><rect width="138.61" height="139.3" fill="#fff"/></clipPath></defs><g clip-path="url(#tc26-clip)"><path d="M25.2 138.41C11.8 138.41 0.890015 127.47 0.890015 114.03V71.6099C0.890015 71.3299 0.890015 71.0599 0.900015 70.7899V70.6199C0.900015 70.2499 0.890015 69.8799 0.890015 69.5099C0.890015 31.6699 31.58 0.889893 69.3 0.889893C107.02 0.889893 137.71 31.6699 137.71 69.4999C137.71 69.8599 137.71 70.2199 137.7 70.5699V70.7799C137.7 71.0499 137.71 71.3299 137.71 71.5999V114.02C137.71 127.46 126.8 138.4 113.4 138.4H25.2V138.41Z" fill="#00EB5B"/><path d="M69.3 1.78C87.34 1.78 104.29 8.82 117.05 21.61C129.81 34.4 136.83 51.41 136.83 69.5C136.83 69.86 136.83 70.22 136.82 70.58V70.81C136.82 71.07 136.84 71.34 136.84 71.6V114.02C136.84 126.97 126.33 137.51 113.42 137.51H25.2C12.28 137.51 1.78 126.97 1.78 114.02V71.6C1.78 71.33 1.78 71.07 1.79 70.81V70.58C1.79 70.22 1.77 69.86 1.77 69.5C1.77 51.41 8.79 34.41 21.55 21.61C34.31 8.83 51.26 1.78 69.3 1.78ZM69.3 0C31.03 0 0 31.12 0 69.5C0 69.92 0 70.34 0.02 70.75C0.02 71.04 0 71.32 0 71.6V114.02C0 127.98 11.28 139.29 25.2 139.29H113.4C127.32 139.29 138.6 127.98 138.6 114.02V71.6C138.6 71.31 138.6 71.03 138.58 70.75C138.58 70.33 138.6 69.92 138.6 69.5C138.61 31.12 107.58 0 69.3 0Z" fill="#161107"/><path d="M58.1357 72.4483C58.1357 75.861 55.3835 78.6132 51.9983 78.6132C48.613 78.6132 45.8609 75.8427 45.8609 72.4483C45.8609 69.0539 48.613 66.2834 51.9983 66.2834C55.3835 66.2834 58.1357 69.0539 58.1357 72.4483ZM92.7216 72.4483C92.7216 75.861 89.9694 78.6132 86.5842 78.6132C83.199 78.6132 80.4468 75.8427 80.4468 72.4483C80.4468 69.0539 83.199 66.2834 86.5842 66.2834C89.9694 66.2834 92.7216 69.0539 92.7216 72.4483ZM98.2536 59.5955L103.914 53.4031H91.3639C85.0797 49.0913 77.4928 46.5776 69.2912 46.5776C61.0897 46.5776 53.5303 49.1005 47.2645 53.4031H34.6869L40.3473 59.5955C36.8795 62.7697 34.7053 67.3567 34.7053 72.4483C34.7053 82.0535 42.4481 89.8422 51.9983 89.8422C56.5394 89.8422 60.6677 88.0808 63.7501 85.2002L69.3004 91.2734L74.8507 85.2093C77.9331 88.0808 82.0615 89.8422 86.6026 89.8422C96.1619 89.8422 103.905 82.0535 103.905 72.4483C103.905 67.3476 101.73 62.7697 98.2627 59.5955M52.0166 84.2277C45.5489 84.2277 40.3106 78.9527 40.3106 72.4575C40.3106 65.9623 45.5581 60.6872 52.0166 60.6872C58.4751 60.6872 63.7226 65.9623 63.7226 72.4575C63.7226 78.9527 58.4843 84.2277 52.0166 84.2277ZM69.3096 72.118C69.3096 64.366 63.7135 57.724 56.3192 54.8801C60.3099 53.2013 64.7042 52.2655 69.3096 52.2655C73.9149 52.2655 78.3093 53.1921 82.3 54.8801C74.9057 57.724 69.3096 64.366 69.3096 72.118ZM86.6026 84.2277C80.1441 84.2277 74.8966 78.9527 74.8966 72.4575C74.8966 65.9623 80.1441 60.6872 86.6026 60.6872C93.0611 60.6872 98.3086 65.9623 98.3086 72.4575C98.3086 78.9527 93.0611 84.2277 86.6026 84.2277Z" fill="#161107"/><path d="M85.4833 108.842C82.6761 109.034 80.1165 109.988 78.0524 111.438C80.3 112.594 82.9513 113.181 85.7677 112.988C88.575 112.796 91.1345 111.841 93.1987 110.392C90.951 109.236 88.2998 108.649 85.4833 108.842Z" fill="#161107"/><path d="M98.9141 101.869C96.0426 103.154 93.7216 105.126 92.107 107.447C94.905 107.805 97.9233 107.392 100.795 106.117C103.666 104.832 105.987 102.86 107.602 100.539C104.804 100.181 101.786 100.594 98.9141 101.869Z" fill="#161107"/><path d="M111.611 88.1358C108.666 90.9798 106.712 94.4292 105.767 97.9796C109.345 97.1631 112.849 95.3283 115.794 92.4843C118.739 89.6404 120.693 86.191 121.638 82.6406C118.06 83.4571 114.556 85.2919 111.611 88.1358Z" fill="#161107"/><path d="M114.198 69.8243C112.097 74.1269 111.326 78.6864 111.712 82.9707C115.317 80.6405 118.427 77.2278 120.519 72.9251C122.62 68.6225 123.39 64.0631 123.005 59.7788C119.4 62.109 116.29 65.5217 114.198 69.8243Z" fill="#161107"/><path d="M110.336 49.5592C109.794 54.7425 110.684 59.6964 112.666 63.9256C115.482 60.201 117.391 55.5498 117.941 50.3665C118.482 45.1832 117.583 40.2292 115.611 36C112.794 39.7246 110.886 44.3759 110.336 49.5592Z" fill="#161107"/><path d="M53.1175 108.851C55.9247 109.043 58.4843 109.997 60.5484 111.447C58.3008 112.603 55.6495 113.19 52.8331 112.997C50.0259 112.805 47.4663 111.85 45.4022 110.401C47.6498 109.245 50.3011 108.658 53.1175 108.851Z" fill="#161107"/><path d="M39.6867 101.878C42.5582 103.163 44.8792 105.135 46.4938 107.456C43.6958 107.814 40.6775 107.401 37.8061 106.126C34.9346 104.842 32.6136 102.869 30.999 100.548C33.797 100.19 36.8153 100.603 39.6867 101.878Z" fill="#161107"/><path d="M26.9991 88.1451C29.944 90.9891 31.898 94.4385 32.8429 97.9888C29.2651 97.1723 25.7606 95.3375 22.8158 92.4936C19.8709 89.6497 17.9168 86.2002 16.9719 82.6499C20.5498 83.4664 24.0543 85.3012 26.9991 88.1451Z" fill="#161107"/><path d="M24.412 69.8336C26.5129 74.1362 27.2835 78.6957 26.8982 82.98C23.2928 80.6498 20.1828 77.237 18.0911 72.9344C15.9903 68.6318 15.2197 64.0723 15.605 59.7881C19.2104 62.1183 22.3204 65.531 24.412 69.8336Z" fill="#161107"/><path d="M28.2743 49.5684C28.8155 54.7518 27.9165 59.7057 25.9441 63.9349C23.1277 60.2103 21.2195 55.5591 20.669 50.3758C20.1278 45.1924 21.0268 40.2385 22.9992 36.0093C25.8156 39.7339 27.7238 44.3851 28.2743 49.5684Z" fill="#161107"/><path d="M69.3004 119.41C71.8875 119.41 73.9883 117.3 73.9883 114.704C73.9883 112.107 71.8875 109.997 69.3004 109.997C66.7133 109.997 64.6125 112.107 64.6125 114.704C64.6125 117.3 66.7133 119.41 69.3004 119.41Z" fill="#161107"/></g></svg>
